# xmcd
#
# Track frame offsets:
#	150
#	17882
#	33599
#	48754
#	64106
#	76609
#	90276
#	103829
#	116319
#	134039
#	149756
#	164911
#	180263
#	192583
#	206250
#	219781
#
# Disc length: 3099 seconds
#
# Revision: 1
# Processed by: cddbd v1.5.2PL0 Copyright (c) Steve Scherf et al.
# Submitted via: audiograbber 1.83.01
#
DISCID=dc0c1910
DTITLE=COMPILATION - CDGA007
DYEAR=1900
DGENRE=
TTITLE0=RIGHTEOUS BROTHERS - UNCHAINED MELODY
TTITLE1=BARBRA STREISAND - THE WAY WE WERE
TTITLE2=TAMMY WYNETTE - STAND BY YOUR MAN
TTITLE3=LYNN ANDERSON - ROSE GARDEN
TTITLE4=ROMEO and JULIET - A TIME FOR US
TTITLE5=ANDY WILLIAMS - THE DAYS OF WINE and ROSES
TTITLE6=BOBBY HEBB - SUNNY
TTITLE7=FREDDIE FENDER - BEFORE THE NEXT TEARDROP FALLS
TTITLE8=RIGHTEOUS BROTHERS - UNCHAINED MELODY (vocal)
TTITLE9=BARBRA STREISAND - THE WAY WE WERE (vocal)
TTITLE10=TAMMY WYNETTE - STAND BY YOUR MAN (vocal)
TTITLE11=LYNN ANDERSON - ROSE GARDEN (vocal)
TTITLE12=ROMEO and JULIET - A TIME FOR US (vocal)
TTITLE13=ANDY WILLIAMS - THE DAYS OF WINE and ROSES (vocal)
TTITLE14=BOBBY HEBB - SUNNY (vocal)
TTITLE15=FREDDIE FENDER - BEFORE THE NEXT TEARDROP FALLS (vocal)
EXTD=
EXTT0=
EXTT1=
EXTT2=
EXTT3=
EXTT4=
EXTT5=
EXTT6=
EXTT7=
EXTT8=
EXTT9=
EXTT10=
EXTT11=
EXTT12=
EXTT13=
EXTT14=
EXTT15=
PLAYORDER=
